# xmcd CD database file
#
# Track frame offsets:
#	150
#	34543
#	62131
#	76559
#	101448
#	130827
#	164392
#	180836
#	199757
#	218442
#
# Disc length: 3263 seconds
#
# Revision: 5
# Processed by: cddbd v1.5.2PL0 Copyright (c) Steve Scherf et al.
# Submitted via: CDex 1.50
#
DISCID=700cbd0a
DTITLE=Iiro Rantala - Lost Heroes
DYEAR=2011
DGENRE=Jazz
TTITLE0=Pekka Pohjola
TTITLE1=Waltz For Bill
TTITLE2=Can't Get Up
TTITLE3=Tears For Esbjorn
TTITLE4=Thinking Of Misty
TTITLE5=Jean And Aino
TTITLE6=Donna Lee
TTITLE7=One More Waltz For Michel Petrucciani
TTITLE8=Bluesette
TTITLE9=Intermezzo
EXTD=full song titles (including dedications) YEAR: 2011
EXTT0=
EXTT1=
EXTT2=
EXTT3=
EXTT4=
EXTT5=
EXTT6=Composer: Charlie Parker
EXTT7=
EXTT8=Composer: Toots Thielemans
EXTT9=
PLAYORDER=
